<?xml version="1.0"?>
<svg xmlns="http://www.w3.org/2000/svg" xmlns:xlink="http://www.w3.org/1999/xlink" version="1.1" id="Capa_1" x="0px" y="0px" viewBox="0 0 368.002 368.002" style="enable-background:new 0 0 368.002 368.002;" xml:space="preserve" width="512px" height="512px" class=""><g><path style="fill:#FFFFFF" d="M248.001,264v96l-104-80l-104,80V56h208v48c-44.16,0-80,35.84-80,80S203.841,264,248.001,264z" data-original="#CCE4FF" class="" data-old_color="#CCE4FF"/><g>
	<path style="fill:#FEC61B" d="M240.001,152v24h-24c-4.416,0-8,3.584-8,8c0,4.416,3.584,8,8,8h24v24c0,4.416,3.584,8,8,8   s8-3.584,8-8v-24h24c4.416,0,8-3.584,8-8s-3.584-8-8-8h-24v-24c0-4.416-3.584-8-8-8S240.001,147.584,240.001,152z" data-original="#007AFF" class="active-path" data-old_color="#007AFF"/>
	<path style="fill:#FEC61B" d="M36.465,367.176c2.728,1.352,6,1.024,8.416-0.832l99.12-76.248l99.12,76.248   c1.424,1.096,3.152,1.656,4.88,1.656c1.2,0,2.416-0.272,3.536-0.824c2.736-1.344,4.464-4.128,4.464-7.176v-88.408   c44.784-4.056,80-41.768,80-87.592s-35.216-83.536-80-87.592V24c0-13.232-10.768-24-24-24h-176c-13.232,0-24,10.768-24,24v336   C32.001,363.048,33.729,365.832,36.465,367.176z M148.881,273.664c-2.872-2.208-6.88-2.208-9.76,0l-91.12,70.088V64h192v32.408   c-44.784,4.056-80,41.768-80,87.592s35.216,83.536,80,87.592v72.16L148.881,273.664z M320.001,184c0,39.696-32.304,72-72,72   s-72-32.304-72-72s32.304-72,72-72S320.001,144.304,320.001,184z M56.001,16h176c4.408,0,8,3.592,8,8v24h-192V24   C48.001,19.592,51.593,16,56.001,16z" data-original="#007AFF" class="active-path" data-old_color="#007AFF"/>
</g></g> </svg>
