<?xml version="1.0" encoding="iso-8859-1"?>
<!-- Generator: Adobe Illustrator 19.0.0, SVG Export Plug-In . SVG Version: 6.00 Build 0)  -->
<svg version="1.1" id="Capa_1" xmlns="http://www.w3.org/2000/svg" xmlns:xlink="http://www.w3.org/1999/xlink" x="0px" y="0px"
	 viewBox="0 0 409.6 409.6" style="enable-background:new 0 0 409.6 409.6;" xml:space="preserve">
<circle style="fill:#EA8953;" cx="204.8" cy="204.8" r="204.8"/>
<path style="opacity:0.1;enable-background:new    ;" d="M409.056,218.998L307.243,117.185c-0.089-0.094-0.179-0.184-0.273-0.273
	c-1.038-0.971-2.422-1.578-3.952-1.578H106.581c-3.2,0-5.802,2.603-5.802,5.803V263.9c0,2.432,1.152,4.48,2.901,5.632H87.466v14.122
	c0,2.043,0.68,3.93,1.804,5.545c0.711,1.023,1.617,1.912,2.666,2.666L209.551,409.48
	C315.705,407.055,401.864,323.909,409.056,218.998z"/>
<g>
	<rect x="120.58" y="266.11" style="fill:#EBF0F3;" width="17.04" height="11.358"/>
	<rect x="262.57" y="266.11" style="fill:#EBF0F3;" width="17.04" height="11.358"/>
</g>
<path style="fill:#3EA69B;" d="M308.833,121.122c0-3.206-2.599-5.804-5.804-5.804H106.571c-3.206,0-5.804,2.599-5.804,5.804V241.87
	h208.067L308.833,121.122L308.833,121.122z"/>
<path style="fill:#31978C;" d="M100.767,238.395v25.523c0,3.596,2.599,6.51,5.804,6.51h196.458c3.206,0,5.804-2.915,5.804-6.51
	v-25.523H100.767z"/>
<rect x="112.13" y="126.67" style="fill:#EBF0F3;" width="185.39" height="128.21"/>
<path style="fill:#44C4A1;" d="M322.133,269.524v14.126c0,5.872-5.388,10.632-12.035,10.632H99.501
	c-6.647,0-12.035-4.76-12.035-10.632v-14.126H322.133z"/>
<g>
	<path style="fill:#EBF0F3;" d="M226.516,286.869h-43.431c-2.378,0-4.323-1.945-4.323-4.323v-1.286c0-2.378,1.945-4.323,4.323-4.323
		h43.431c2.378,0,4.323,1.945,4.323,4.323v1.286C230.839,284.924,228.893,286.869,226.516,286.869z"/>
	<circle style="fill:#EBF0F3;" cx="202.07" cy="120.92" r="4.228"/>
</g>
<g>
	<circle style="fill:#D5D6DB;" cx="202.07" cy="120.92" r="2.564"/>
	<path style="fill:#D5D6DB;" d="M215.721,286.869h-21.842c-2.378,0-4.323-1.945-4.323-4.323v-1.286c0-2.378,1.945-4.323,4.323-4.323
		h21.842c2.378,0,4.323,1.945,4.323,4.323v1.286C220.044,284.924,218.099,286.869,215.721,286.869z"/>
</g>
<path style="fill:#E56353;" d="M273.758,158.804H186.86c-3.033,0-5.491,2.458-5.491,5.491v46.838c0,3.033,2.458,5.491,5.491,5.491
	h49.283l36.371,25.246l-12.837-25.246h14.08c3.033,0,5.491-2.458,5.491-5.491v-46.838
	C279.249,161.263,276.79,158.804,273.758,158.804z"/>
<path style="fill:#FCD462;" d="M254.695,150.252H144.759c-2.246,0-4.066,1.821-4.066,4.066v48.442c0,2.246,1.821,4.067,4.066,4.067
	h15.635l-11.092,21.814l31.426-21.814h73.967c2.246,0,4.066-1.821,4.066-4.067v-48.442
	C258.762,152.073,256.941,150.252,254.695,150.252z"/>
<g>
	<rect x="154.24" y="156.81" style="fill:#F6C358;" width="91.01" height="10.453"/>
	<rect x="154.24" y="173.31" style="fill:#F6C358;" width="91.01" height="10.453"/>
	<rect x="154.24" y="189.87" style="fill:#F6C358;" width="91.01" height="10.453"/>
</g>
<g>
</g>
<g>
</g>
<g>
</g>
<g>
</g>
<g>
</g>
<g>
</g>
<g>
</g>
<g>
</g>
<g>
</g>
<g>
</g>
<g>
</g>
<g>
</g>
<g>
</g>
<g>
</g>
<g>
</g>
</svg>
