<?xml version="1.0"?>
<svg xmlns="http://www.w3.org/2000/svg" height="512px" version="1.1" viewBox="1 1 371.613 371.613" width="512px" class="hovered-paths"><g><g id="surface1">
<path d="M 192.199219 372 C 291.5 372 372 291.5 372 192.199219 C 372 92.898438 291.5 12.398438 192.199219 12.398438 C 92.898438 12.398438 12.398438 92.898438 12.398438 192.199219 C 12.398438 291.5 92.898438 372 192.199219 372 Z M 55.800781 167.398438 L 167.398438 167.398438 L 167.398438 55.800781 L 217 55.800781 L 217 167.398438 L 328.601562 167.398438 L 328.601562 217 L 217 217 L 217 328.601562 L 167.398438 328.601562 L 167.398438 217 L 55.800781 217 Z M 55.800781 167.398438 " style=" stroke:none;fill-rule:nonzero;fill:rgb(50.196078%,46.27451%,30.196078%);fill-opacity:1;" data-original="#80764D" class=""/>
<path d="M 173.597656 334.800781 L 223.199219 334.800781 L 223.199219 223.199219 L 334.800781 223.199219 L 334.800781 173.597656 L 223.199219 173.597656 L 223.199219 62 L 173.597656 62 L 173.597656 173.597656 L 62 173.597656 L 62 223.199219 L 173.597656 223.199219 Z M 173.597656 334.800781 " style=" stroke:none;fill-rule:nonzero;fill:rgb(50.196078%,46.27451%,30.196078%);fill-opacity:1;" data-original="#80764D" class=""/>
<path d="M 186 365.800781 C 285.300781 365.800781 365.800781 285.300781 365.800781 186 C 365.800781 86.699219 285.300781 6.199219 186 6.199219 C 86.699219 6.199219 6.199219 86.699219 6.199219 186 C 6.199219 285.300781 86.699219 365.800781 186 365.800781 Z M 49.597656 161.199219 L 161.199219 161.199219 L 161.199219 49.597656 L 210.800781 49.597656 L 210.800781 161.199219 L 322.398438 161.199219 L 322.398438 210.800781 L 210.800781 210.800781 L 210.800781 322.398438 L 161.199219 322.398438 L 161.199219 210.800781 L 49.597656 210.800781 Z M 49.597656 161.199219 " style="fill:#8800FF" data-original="#00D7DF" class="" data-old_color="#00D7DF"/>
<path d="M 161.199219 322.402344 L 210.800781 322.402344 L 210.800781 210.800781 L 322.402344 210.800781 L 322.402344 161.199219 L 210.800781 161.199219 L 210.800781 49.597656 L 161.199219 49.597656 L 161.199219 161.199219 L 49.597656 161.199219 L 49.597656 210.800781 L 161.199219 210.800781 Z M 161.199219 322.402344 " style="fill:#FFFFFF" data-original="#FF5023" class="" data-old_color="#FF5023"/>
<path d="M 186 0 C 83.273438 0 0 83.273438 0 186 C 0 288.722656 83.273438 372 186 372 C 288.722656 372 372 288.722656 372 186 C 371.882812 83.324219 288.675781 0.117188 186 0 Z M 186 359.601562 C 90.121094 359.601562 12.398438 281.878906 12.398438 186 C 12.398438 90.125 90.125 12.398438 186 12.398438 C 281.875 12.398438 359.601562 90.125 359.601562 186 C 359.492188 281.832031 281.832031 359.492188 186 359.601562 Z M 186 359.601562 " style="fill:#8800FF" data-original="#231F20" class="active-path" data-old_color="#231F20"/>
<path d="M 322.402344 155 L 217 155 L 217 49.597656 C 217 46.175781 214.226562 43.398438 210.800781 43.398438 L 161.199219 43.398438 C 157.777344 43.398438 155 46.175781 155 49.597656 L 155 155 L 49.597656 155 C 46.175781 155 43.398438 157.773438 43.398438 161.199219 L 43.398438 210.800781 C 43.398438 214.222656 46.175781 217 49.597656 217 L 155 217 L 155 322.398438 C 155 325.824219 157.773438 328.601562 161.199219 328.601562 L 210.800781 328.601562 C 214.222656 328.601562 217 325.824219 217 322.398438 L 217 217 L 322.398438 217 C 325.824219 217 328.601562 214.222656 328.601562 210.800781 L 328.601562 161.199219 C 328.601562 157.777344 325.824219 155 322.402344 155 Z M 316.199219 204.601562 L 210.800781 204.601562 C 207.375 204.601562 204.601562 207.375 204.601562 210.800781 L 204.601562 316.199219 L 167.398438 316.199219 L 167.398438 210.800781 C 167.398438 207.375 164.625 204.601562 161.199219 204.601562 L 55.800781 204.601562 L 55.800781 167.398438 L 161.199219 167.398438 C 164.625 167.398438 167.398438 164.625 167.398438 161.199219 L 167.398438 55.800781 L 204.601562 55.800781 L 204.601562 161.199219 C 204.601562 164.625 207.375 167.398438 210.800781 167.398438 L 316.199219 167.398438 Z M 316.199219 204.601562 " style="fill:#8800FF" data-original="#231F20" class="active-path" data-old_color="#231F20"/>
</g></g> </svg>
