<?xml version="1.0"?>
<svg xmlns="http://www.w3.org/2000/svg" id="Capa_1" enable-background="new 0 0 512 512" height="512px" viewBox="0 0 512 512" width="512px" class=""><g><g><g fill="#ffd5b6"><path d="m357 451h-115.275c-30.095 0-57.448-15.11-73.434-40h-16.291c-8.284 0-15-6.716-15-15v-180c0-8.284 6.716-15 15-15h25c35.899 0 65-29.101 65-65v-60c0-8.284 6.716-15 15-15 29.271 0 53 23.729 53 53v67h47c8.284 0 15 6.716 15 15v240c0 8.284-6.716 15-15 15z" data-original="#FFD5B6" class=""/><path d="m478.25 316h-136.25v-67.5h136.25c18.64 0 33.75 15.11 33.75 33.75 0 18.64-15.11 33.75-33.75 33.75z" data-original="#FFD5B6" class=""/><path d="m342 181h116.25c18.64 0 33.75 15.11 33.75 33.75 0 18.64-15.11 33.75-33.75 33.75h-116.25z" data-original="#FFD5B6" class=""/></g><path d="m137 431h-122c-8.284 0-15-6.716-15-15v-220c0-8.284 6.716-15 15-15h122c8.284 0 15 6.716 15 15v220c0 8.284-6.716 15-15 15z" fill="#49acff" data-original="#49ACFF" class="active-path" style="fill:#FAB201" data-old_color="#49acff"/><circle cx="82" cy="251" fill="#dcf0ff" r="15" data-original="#DCF0FF"/><path d="m137 316v80c0 8.284 6.716 15 15 15h16.292c15.986 24.89 43.339 40 73.434 40h115.274c8.284 0 15-6.716 15-15v-120z" fill="#ffc896" data-original="#FFC896" class=""/><path d="m0 316v100c0 8.284 6.716 15 15 15h122c8.284 0 15-6.716 15-15v-100z" fill="#1790e7" data-original="#1790E7" class="" style="fill:#F3CB67" data-old_color="#1790e7"/><path d="m438.25 451h-96.25v-67.5h96.25c18.64 0 33.75 15.11 33.75 33.75 0 18.64-15.11 33.75-33.75 33.75z" fill="#ffc896" data-original="#FFC896" class=""/><path d="m458.25 383.5h-116.25v-67.5h116.25c18.64 0 33.75 15.11 33.75 33.75 0 18.64-15.11 33.75-33.75 33.75z" fill="#ffc896" data-original="#FFC896" class=""/></g></g> </svg>
