<?xml version="1.0" encoding="utf-8"?>
<!-- Generator: Adobe Illustrator 23.0.3, SVG Export Plug-In . SVG Version: 6.00 Build 0)  -->
<svg version="1.1" id="Layer_1" xmlns="http://www.w3.org/2000/svg" xmlns:xlink="http://www.w3.org/1999/xlink" x="0px" y="0px"
	 viewBox="0 0 1500.7 512" style="enable-background:new 0 0 1500.7 512;" xml:space="preserve">
<style type="text/css">
	.st0{fill:#FFFFFF;}
	.st1{fill:#FFE100;}
	.st2{fill:#FAB201;}
	.st3{fill:#BA86ED;}
	.st4{fill:#403254;}
</style>
<path class="st0" d="M168.1,500.1c-0.9-3.4-1.7-9.4-1.7-12.8c0-20.5,17.9-37.5,39.3-37.5c0.9,0,2.6,0,3.4,0c-2.6-6-4.3-12.8-6-18.8
	c-23.9-7.7-41-36.7-41-71.7c0-30.7,13.7-57.2,33.3-68.3c-10.2-4.3-19.6-10.2-28.2-16.2c-26.5-20.5-41-47.8-41-76.8
	c0-4.3,0-7.7,0.9-11.9c-10.2-6.8-17.1-20.5-17.1-35c0-18.8,11.1-34.1,25.6-39.3c-4.3,0-7.7-0.9-11.1-0.9c-23,0-41,17.9-41,41
	c0,14.5,7.7,28.2,19.6,35c-0.9,3.4-0.9,7.7-0.9,11.9c0,29,17.1,56.3,47.8,76.8c10.2,6.8,20.5,11.9,32.4,16.2
	c-23,11.1-39.3,37.5-39.3,68.3c0,35,20.5,64,47.8,71.7c2.6,6.8,4.3,12.8,6.8,18.8c-0.9,0-2.6,0-4.3,0c-24.7,0-46.1,17.1-46.1,37.5
	c0,3.4,0.9,8.5,1.7,12.8c0.9,2.6,3.4,5.1,6.8,5.1h14.5C170.7,505.2,168.1,502.6,168.1,500.1"/>
<path class="st1" d="M267.1,93.9c-0.9,0-1.7,0-2.6,0c-4.3-1.7-6.8-6-6-10.2l21.3-71.7c2.6-7.7,10.2-11.9,17.9-10.2l60.6,17.1
	c4.3,1.7,6.8,6,6,10.2c-1.7,4.3-6,6.8-10.2,6l-58-17.1l-21.3,70C273.9,91.3,270.5,93.9,267.1,93.9z"/>
<path class="st2" d="M254.3,85.3c-34.1,0.9-69.1,16.2-93.9,34.1c-6-6.8-14.5-10.2-23-10.2c-19.6,0-35,17.9-35,41
	c0,14.5,6.8,28.2,17.1,35c-0.9,3.4-0.9,7.7-0.9,11.9c0,29,14.5,56.3,41,76.8c8.5,6.8,17.9,11.9,28.2,16.2
	c-19.6,11.1-33.3,37.5-33.3,68.3c0,35,17.9,64,41,71.7c1.7,6.8,4.3,12.8,6,18.8c-0.9,0-2.6,0-3.4,0c-21.3,0-39.3,17.1-39.3,37.5
	c0,3.4,0.9,8.5,1.7,12.8c0.9,2.6,3.4,5.1,6,5.1h177.5c2.6,0,5.1-1.7,6-5.1s0-9.4,0-11.9c0-20.5-15.4-37.5-36.7-37.5
	c-0.9,0-1.7,0-2.6,0c2.6-6,4.3-12.8,6-18.8c23.9-7.7,41-36.7,41-71.7c0-30.7-13.7-57.2-33.3-68.3c10.2-4.3,19.6-10.2,28.2-16.2
	c26.5-20.5,41-47.8,41-76.8c0-4.3,0-7.7-0.9-11.9c10.2-6.8,17.1-20.5,17.1-35c0-22.2-15.4-41-35-41c-8.5,0-17.1,4.3-23,10.2
	C327.7,102.4,294.4,87,262,86.2h-7.7L254.3,85.3L254.3,85.3z"/>
<g>
	<path class="st1" d="M433.5,151.9c0-22.2-17.9-41-41-41c-3.4,0-6.8,0.9-10.2,1.7c14.5,5.1,25.6,20.5,25.6,39.3
		c0,14.5-6.8,28.2-17.1,35c0.9,3.4,0.9,7.7,0.9,11.9c0,29-14.5,56.3-41,76.8c-8.5,6.8-17.9,11.9-28.2,16.2
		c19.6,11.1,33.3,37.5,33.3,68.3c0,35-17.9,64-41,71.7c-1.7,6.8-4.3,12.8-6,18.8c0.9,0,1.7,0,2.6,0c21.3,0,36.7,17.1,36.7,37.5
		c0,3.4,0.9,8.5,0,11.9c-0.9,2.6-3.4,5.1-6,5.1h14.5c3.4,0,6-1.7,6.8-5.1c0.9-3.4,0-9.4,0-11.9c0-20.5-17.9-37.5-42.7-37.5
		c-0.9,0-1.7,0-2.6,0c2.6-6,5.1-12.8,6.8-18.8c27.3-7.7,47.8-36.7,47.8-71.7c0-30.7-16.2-57.2-39.3-68.3
		c11.9-4.3,22.2-10.2,32.4-16.2c30.7-20.5,47.8-47.8,47.8-76.8c0-4.3,0-7.7-0.9-11.9C425,179.2,433.5,166.4,433.5,151.9"/>
	<path class="st1" d="M407.9,42.7c0-18.8-15.4-34.1-34.1-34.1s-34.1,15.4-34.1,34.1s15.4,34.1,34.1,34.1S407.9,61.4,407.9,42.7"/>
</g>
<path class="st1" d="M390.8,42.7c0-18.8-11.1-34.1-25.6-34.1s-25.6,15.4-25.6,34.1s11.1,34.1,25.6,34.1S390.8,61.4,390.8,42.7"/>
<g>
	<path class="st1" d="M228.7,179.2c0-14.5-11.1-25.6-25.6-25.6s-25.6,11.1-25.6,25.6s11.1,25.6,25.6,25.6
		C217.6,204.8,228.7,193.7,228.7,179.2"/>
	<path class="st1" d="M331.1,179.2c0-14.5-11.1-25.6-25.6-25.6s-25.6,11.1-25.6,25.6s11.1,25.6,25.6,25.6S331.1,193.7,331.1,179.2"
		/>
</g>
<path class="st3" d="M268.8,460.8h-25.6c-23-13.7-40.1-56.3-40.1-108.4c0-11.9,0.9-23.9,2.6-35c15.4,4.3,32.4,6.8,50.3,6.8
	s34.1-2.6,50.3-6.8c1.7,11.1,2.6,23,2.6,35C308.9,404.5,291.8,447.1,268.8,460.8"/>
<path class="st4" d="M248.3,460.8h-6c-22.2-13.7-39.3-56.3-39.3-108.4c0-11.9,0.9-23.9,2.6-35c15.4,4.3,32.4,6.8,50.3,6.8
	c17.9,0,14.5-2.6,29.9-6.8c1.7,11.1,2.6,23,2.6,35C288.4,404.5,271.4,447.1,248.3,460.8"/>
<path class="st4" d="M203.1,213.3c-18.8,0-34.1-15.4-34.1-34.1s15.4-34.1,34.1-34.1s34.1,15.4,34.1,34.1S221.9,213.3,203.1,213.3z
	 M203.1,162.1c-9.4,0-17.1,7.7-17.1,17.1s7.7,17.1,17.1,17.1s17.1-7.7,17.1-17.1S212.5,162.1,203.1,162.1z"/>
<path class="st4" d="M305.5,213.3c-18.8,0-34.1-15.4-34.1-34.1s15.4-34.1,34.1-34.1s34.1,15.4,34.1,34.1S324.3,213.3,305.5,213.3z
	 M305.5,162.1c-9.4,0-17.1,7.7-17.1,17.1s7.7,17.1,17.1,17.1s17.1-7.7,17.1-17.1S314.9,162.1,305.5,162.1z"/>
<path class="st4" d="M254.3,264.5c-23,0-45.2-7.7-57.2-19.6c-3.4-3.4-3.4-8.5,0-11.9s8.5-3.4,11.9,0c6.8,6.8,22.2,14.5,45.2,14.5
	s38.4-7.7,45.2-14.5c3.4-3.4,8.5-3.4,11.9,0s3.4,8.5,0,11.9C299.5,256.9,277.3,264.5,254.3,264.5z"/>
<path class="st4" d="M358.4,512H151.9c-6.8,0-12.8-4.3-14.5-10.2c-1.7-5.1-2.6-11.9-2.6-15.4c0-23,19.6-41.8,46.1-46.1
	c-0.9-1.7-0.9-2.6-1.7-4.3c-29.9-10.2-50.3-41.8-50.3-78.5c0-27.3,11.1-51.2,29.9-66.6c-6.8-3.4-12.8-6.8-18.8-11.1
	c-33.3-22.2-52.1-51.2-52.1-83.6c0-2.6,0-5.1,0-7.7c-11.9-9.4-19.6-23.9-19.6-39.3c0-27.3,22.2-49.5,49.5-49.5
	c10.2,0,19.6,2.6,27.3,8.5c33.3-18.8,73.4-30.7,109.2-31.6l0,0h8.5c34.1,1.7,72.5,13.7,104.1,32.4c7.7-5.1,17.9-8.5,27.3-8.5
	c27.3,0,49.5,22.2,49.5,49.5c0,15.4-7.7,29.9-19.6,39.3c0,2.6,0,5.1,0,7.7c0,32.4-18.8,61.4-52.1,83.6c-6,4.3-11.9,7.7-18.8,11.1
	c17.9,15.4,29.9,40.1,29.9,66.6c0,36.7-20.5,68.3-50.3,78.5c-0.9,1.7-0.9,2.6-1.7,4.3c23.9,4.3,41.8,22.2,41.8,45.2
	c0,0.9,0,1.7,0,2.6c0,3.4,0.9,8.5-0.9,11.9C371.2,507.7,365.2,512,358.4,512z M152.7,494.9h203.9c0-1.7,0-3.4,0-4.3
	c0-1.7,0-2.6,0-4.3c0-17.1-14.5-29-34.1-29c-0.9,0-1.7,0-2.6,0c-2.6,0-6-0.9-7.7-3.4s-1.7-6-0.9-8.5c2.6-6,5.1-11.9,6.8-17.9
	c0.9-2.6,3.4-5.1,6-6c23.9-6.8,41.8-33.3,41.8-63.1c0-26.5-13.7-51.2-34.1-60.6c-3.4-1.7-5.1-4.3-5.1-7.7s2.6-6.8,5.1-7.7
	c11.1-4.3,21.3-9.4,30.7-15.4c28.2-18.8,44.4-43.5,44.4-69.1c0-3.4,0-6.8-0.9-10.2c-0.9-3.4,0.9-6.8,4.3-8.5
	c9.4-6,15.4-16.2,15.4-27.3c0-17.9-14.5-32.4-32.4-32.4c-7.7,0-15.4,2.6-21.3,8.5c-2.6,2.6-6.8,2.6-10.2,0.9
	c-29.9-19.6-67.4-31.6-100.7-33.3h-8.5c-34.1,0.9-73.4,12.8-105,33.3c-3.4,1.7-7.7,1.7-10.2-0.9c-6-5.1-13.7-8.5-21.3-8.5
	c-17.9,0-32.4,14.5-32.4,32.4c0,11.1,6,22.2,15.4,27.3c3.4,1.7,4.3,5.1,4.3,8.5c-0.9,3.4-0.9,6.8-0.9,10.2
	c0,26.5,15.4,50.3,44.4,69.1c9.4,6,19.6,11.1,30.7,15.4c3.4,0.9,5.1,4.3,5.1,7.7s-1.7,6.8-5.1,7.7c-20.5,9.4-34.1,34.1-34.1,60.6
	c0,29.9,17.9,57.2,41.8,63.1c2.6,0.9,5.1,2.6,6,6c1.7,6,4.3,12.8,6.8,18.8c0.9,2.6,0.9,6-0.9,8.5s-4.3,3.4-7.7,3.4
	c-0.9,0-2.6,0-3.4,0c-17.1-0.9-34.1,11.9-34.1,28.2C151.9,488.1,152.7,492.4,152.7,494.9z"/>
<path class="st4" d="M254.3,93.9c-0.9,0-1.7,0-2.6,0c-4.3-1.7-6.8-6-6-10.2l21.3-71.7C269.7,4.3,277.3,0,285,1.7l60.6,17.1
	c4.3,1.7,6.8,6,6,10.2c-1.7,4.3-6,6.8-10.2,6l-58-17.1l-20.5,70C261.1,91.3,257.7,93.9,254.3,93.9z"/>
<path class="st4" d="M373.8,85.3c-23.9,0-42.7-18.8-42.7-42.7S349.9,0,373.8,0s42.7,18.8,42.7,42.7S397.7,85.3,373.8,85.3z
	 M373.8,17.1c-14.5,0-25.6,11.1-25.6,25.6s11.1,25.6,25.6,25.6c14.5,0,25.6-11.1,25.6-25.6S388.3,17.1,373.8,17.1z"/>
<path class="st4" d="M268.8,469.3h-25.6c-1.7,0-2.6,0-4.3-0.9c-26.5-15.4-44.4-61.4-44.4-115.2c0-11.9,0.9-24.7,2.6-35.8
	c0-2.6,1.7-4.3,4.3-6c1.7-1.7,4.3-1.7,6.8-0.9c29.9,9.4,64.9,9.4,95.6,0c2.6-0.9,5.1,0,6.8,0.9c1.7,1.7,3.4,3.4,4.3,6
	c1.7,11.9,2.6,23.9,2.6,35.8c0,53.8-17.9,100.7-44.4,115.2C272.2,469.3,270.5,469.3,268.8,469.3z M245.8,452.3h21.3
	c19.6-12.8,33.3-54.6,33.3-99.8c0-8.5-0.9-16.2-1.7-23.9c-27.3,6.8-58,6.8-85.3,0c-0.9,7.7-1.7,16.2-1.7,23.9
	C212.5,397.7,226.1,439.5,245.8,452.3z"/>
<circle class="st4" cx="1335.1" cy="256.3" r="36.9"/>
<path class="st0" d="M812.8,413.1c14.3,1,26.6-9.8,27.7-24.1c0.1-0.8,0.1-1.7,0.1-2.6c-0.2-5-0.8-10-1.8-14.9
	c-8.7-46.7-48.6-81-96-82.9c-54,0-99.1,49.6-99.1,110.6s44.4,110.6,99.1,110.6c29,1.1,57.1-10.6,76.6-32c8-8.7,7.3-22.3-1.4-30.3
	c-0.7-0.6-1.3-1.1-2-1.6c-8.7-5.4-20.1-4.3-27.5,2.8c-12.2,12.1-28.5,19-45.7,19.6c-29.7-2.4-53.5-25.6-56.5-55.4H812L812.8,413.1z
	 M742.5,330.2c26.2,1.7,48.2,20.4,54,46.1H688.6C694.4,350.6,716.3,331.9,742.5,330.2z"/>
<path class="st0" d="M645.8,310c0-10.4-7.7-19.2-18-20.4c-27.8-4.6-56,5.6-74.3,27.2V314c0-11.5-9.3-20.8-20.8-20.8
	S512,302.5,512,314v170.2c-0.3,11.2,8.3,20.6,19.4,21.6c11.4,0.8,21.3-7.8,22.1-19.2c0.1-0.8,0.1-1.6,0-2.4v-87.3
	c-1.8-34.8,24.9-64.5,59.7-66.4c3.1-0.2,6.3-0.1,9.3,0.2h4.2C637.5,329.8,645.8,320.8,645.8,310z"/>
<path class="st0" d="M1355.9,332.3c0-11.5-9.3-20.8-20.8-20.8c-11.5,0-20.8,9.3-20.8,20.8l0,0v151.8c0,11.5,9.3,20.8,20.8,20.8
	c11.5,0,20.8-9.3,20.8-20.8V332.3z"/>
<path class="st0" d="M1049.2,217c0-11.4-9.3-20.7-20.7-20.7l0,0l0,0c-11.4,0-20.7,9.3-20.7,20.7v92.8c-14-14.1-33.2-21.8-53.1-21.3
	c-54,0-99.1,49.6-99.1,110.6s44.5,110.6,99.1,110.6c20.2,0.6,39.7-7.1,54-21.5c3.2,11,14.7,17.2,25.7,14c8.3-2.4,14.2-9.7,14.7-18.4
	L1049.2,217L1049.2,217z M954.5,468.8c-31.8,0-57.7-30.9-57.7-69.2s25.7-69.2,57.7-69.2c32,0,57.7,30.9,57.7,69.2
	s-25.7,68.9-57.6,68.9L954.5,468.8z"/>
<path class="st0" d="M1265.9,217c0-11.4-9.3-20.7-20.7-20.7l0,0c-11.4,0-20.7,9.3-20.7,20.7l0,0v92.8c-14-14.1-33.2-21.8-53.1-21.3
	c-54,0-99.1,49.6-99.1,110.6s44.5,110.6,99.1,110.6c20.2,0.6,39.7-7.1,54-21.5c3.2,11,14.7,17.2,25.7,14c8.3-2.4,14.2-9.7,14.7-18.4
	L1265.9,217L1265.9,217z M1171.3,468.8c-31.8,0-57.7-30.9-57.7-69.2s25.7-69.2,57.7-69.2s57.7,30.9,57.7,69.2s-25.7,68.9-57.6,68.9
	L1171.3,468.8z"/>
<path class="st0" d="M1463.5,484.1V330.2h18c10,0.6,18.4-7,19-16.9c0-0.3,0.1-0.7,0.1-1.1c0.9-9.9-6.5-18.6-16.3-19.5
	c-0.5-0.1-1.1-0.1-1.7-0.1h-19V264c0.1-11.1-8.3-20.4-19.4-21.5c-11.4-0.8-21.3,7.8-22.1,19.2c-0.1,0.5-0.1,1-0.1,1.5V293h-18
	c-10-0.6-18.4,7-19,16.9c0,0.3-0.1,0.7-0.1,1.1c-0.9,9.9,6.5,18.6,16.3,19.5c0.5,0.1,1.1,0.1,1.7,0.1h18v153.5
	c0,11.4,9.3,20.7,20.7,20.7l0,0l0,0c11.4,0.7,21.2-8,21.9-19.4C1463.5,485,1463.5,484.5,1463.5,484.1z"/>
</svg>
